REM MD5 bf4526ef1e2a0a8f195e53363716dcbe
FILE "Dengeki PlayStation D21 (Japan).bin" BINARY
  TRACK 01 MODE2/2352
    INDEX 01 00:00:00
  TRACK 02 AUDIO
    INDEX 00 43:03:48
    INDEX 01 43:05:48
  TRACK 03 AUDIO
    INDEX 00 44:44:74
    INDEX 01 44:46:74
  TRACK 04 AUDIO
    INDEX 00 47:23:69
    INDEX 01 47:25:69
REM LEADOUT 50:55:69
